<svg width="1212" height="1325" viewBox="0 0 1212 1325" fill="none" xmlns="http://www.w3.org/2000/svg">
<g clip-path="url(#clip0_1_33)">
<rect width="1211.11" height="1325" fill="#85D5EB"/>
<path d="M-28.6667 537.969L-75.1875 601.786V1337H1229V-331H613V-304.774L604.979 -254.943L621.021 -238.333L616.208 -226.969L604.979 -233.962L603.375 -212.107L580.917 -177.138L565.677 -182.384L513.542 -143.918L589.74 -74.8553L555.25 -29.3962L471.031 -99.3333L452.583 -74.8553L471.031 -58.2453L503.917 -29.3962L497.5 -22.4025L452.583 -58.2453L434.938 -29.3962L446.969 -6.66669L434.938 9.94339L372.375 -41.6352L333.875 -14.5346L404.458 54.5283L382.802 85.1258L281.74 3.82388L251.26 21.3082L320.24 85.1258L304.198 103.484L260.885 65.0189L244.844 77.2578L216.771 47.5346L191.906 72.0126L178.271 65.0189L167.042 85.1258L244.844 150.692L210.354 197.025L149.396 141.075L131.75 164.679L197.521 225L178.271 245.981L161.427 267.836L115.708 225L64.375 290.566L82.0208 316.792L64.375 340.396L91.6458 363.126L74.8021 383.233L53.1458 363.126L41.9167 374.491L21.8646 363.126L-15.8333 407.711L-7.01042 443.553V473.277L7.42708 489.013L-15.8333 516.113L-69.5729 461.912L-80 489.013L-28.6667 537.969Z" fill="#F5F3F3"/>
<path d="M699.648 1091.22H601.239H584.545V973.484H490.53V933.066H429.903V850.473H466.806V813.57H453.627V788.089H466.806V769.638H524.797V807.419H544.127V796.876H580.152V809.177H611.783L613.54 829.385H630.235V809.177H620.57V745.914H718.099V767.002L867.469 763.487V824.992H924.581V759.094H956.213V861.017H924.581V881.226H891.193V969.969H818.265V946.246H801.571V1008.63H740.944V1045.53H699.648V1091.22Z" fill="#F9F0DE"/>
<path d="M647.261 549.41L605.554 600.741L500.484 519.733L541.389 467.6L647.261 549.41Z" fill="#B4E7C7"/>
<path d="M307.99 1183.84C277.245 1210.57 214.791 1265.01 210.941 1268.86L258.263 1145.34L307.99 1183.84Z" fill="#B4E7C7"/>
<path d="M405.841 1095.61L302.376 1012.2L32.8844 797.245L45.7173 777.194L330.448 1002.57L343.281 987.333L369.749 1006.58L355.312 1024.23L425.091 1081.17L405.841 1095.61Z" fill="#B4E7C7"/>
<path d="M626.407 730.675L615.179 746.716L626.407 757.143L638.438 740.299L626.407 730.675Z" fill="#B4E7C7"/>
<path d="M664.906 868.629L644.855 884.67L615.179 871.837L626.407 858.202L640.844 868.629L648.865 858.202L664.906 868.629Z" fill="#B4E7C7"/>
<path d="M391.404 486.849L380.978 477.224L363.332 497.276L384.186 512.515L391.404 503.692L380.978 497.276L391.404 486.849Z" fill="#B4E7C7"/>
<path d="M470.006 412.258L446.746 392.206H450.757L461.183 373.759L485.245 397.018L470.006 412.258Z" fill="#B4E7C7"/>
<path d="M199.712 614.376L186.88 603.147L196.504 584.7L213.347 598.335L199.712 614.376Z" fill="#B4E7C7"/>
<path d="M400.227 772.382L392.206 765.965H393.008L403.435 749.122L413.06 757.143L400.227 772.382Z" fill="#B4E7C7"/>
<path d="M307.99 1183.84C277.245 1210.57 214.791 1265.01 210.941 1268.86L258.263 1145.34L307.99 1183.84Z" stroke="#B4E7C7" stroke-width="4.81235"/>
<path d="M405.841 1095.61L302.376 1012.2L32.8844 797.245L45.7173 777.194L330.448 1002.57L343.281 987.333L369.749 1006.58L355.312 1024.23L425.091 1081.17L405.841 1095.61Z" stroke="#B4E7C7" stroke-width="4.81235"/>
<path d="M626.407 730.675L615.179 746.716L626.407 757.143L638.438 740.299L626.407 730.675Z" stroke="#B4E7C7" stroke-width="4.81235"/>
<path d="M664.906 868.629L644.855 884.67L615.179 871.837L626.407 858.202L640.844 868.629L648.865 858.202L664.906 868.629Z" stroke="#B4E7C7" stroke-width="4.81235"/>
<path d="M391.404 486.849L380.978 477.224L363.332 497.276L384.186 512.515L391.404 503.692L380.978 497.276L391.404 486.849Z" stroke="#B4E7C7" stroke-width="4.81235"/>
<path d="M470.006 412.258L446.746 392.206H450.757L461.183 373.759L485.245 397.018L470.006 412.258Z" stroke="#B4E7C7" stroke-width="4.81235"/>
<path d="M199.712 614.376L186.88 603.147L196.504 584.7L213.347 598.335L199.712 614.376Z" stroke="#B4E7C7" stroke-width="4.81235"/>
<path d="M400.227 772.382L392.206 765.965H393.008L403.435 749.122L413.06 757.143L400.227 772.382Z" stroke="#B4E7C7" stroke-width="4.81235"/>
<path d="M703.405 478.828L915.95 651.271L1118.87 538.181L1086.79 308.792L930.387 186.077L889.482 237.409L840.557 194.9L824.516 212.545L778.798 170.838L637.636 343.28L588.711 301.573L560.639 335.26L609.564 376.165L714.634 463.589L703.405 478.828Z" fill="#B4E7C7"/>
<circle cx="769.976" cy="458.777" r="15.2391" fill="#85D5EB"/>
<path d="M852.588 277.512C852.588 294.787 844.198 318.417 826.922 318.417C809.646 318.417 790.027 294.787 790.027 277.512C790.027 260.236 804.032 246.231 821.307 246.231C838.583 246.231 852.588 260.236 852.588 277.512Z" fill="#85D5EB"/>
</g>
<defs>
<clipPath id="clip0_1_33">
<rect width="1211.11" height="1325" fill="white"/>
</clipPath>
</defs>
</svg>
