<svg width="1212" height="1325" viewBox="0 0 1212 1325" fill="none" xmlns="http://www.w3.org/2000/svg">
<g clip-path="url(#clip0_11_131)">
<g clip-path="url(#clip1_11_131)">
<rect width="2164" height="2264.65" transform="translate(-168)" fill="#F0F0F0"/>
<path d="M942.758 776.97V762.672C942.758 743.15 926.932 727.324 907.41 727.324C887.888 727.324 872.062 743.15 872.062 762.672V776.97C872.062 795.564 886.468 810.979 905.019 812.236C925.435 813.62 942.758 797.433 942.758 776.97Z" fill="#B4E7C7"/>
<path d="M1100.67 1270.12H1050.35C1029.97 1270.12 1013.45 1253.6 1013.45 1233.23C1013.45 1213.13 1029.55 1196.72 1049.64 1196.34L1099.95 1195.38C1121.34 1194.97 1138.7 1212.56 1138.02 1233.93C1137.38 1254.1 1120.84 1270.12 1100.67 1270.12Z" fill="#B4E7C7"/>
<path d="M403.055 1453.94L495.819 1463.04C498.209 1463.04 500.594 1463.27 502.94 1463.73L541.077 1471.24C560.456 1475.06 578.496 1460.23 578.496 1440.47V1426.71C578.496 1416.99 570.62 1409.12 560.904 1409.12C550.895 1409.12 542.903 1400.78 543.326 1390.78L547.66 1288.5C548.14 1277.17 539.084 1267.73 527.742 1267.73C517.209 1267.73 508.493 1275.92 507.844 1286.43L505.441 1325.37C504.073 1347.52 485.713 1364.78 463.524 1364.78H438.304C429.039 1364.78 421.528 1372.29 421.528 1381.56C421.528 1390.82 414.018 1398.33 404.753 1398.33H400.195C389.707 1398.33 380.774 1405.96 379.126 1416.31L378.249 1421.82C375.728 1437.68 387.081 1452.38 403.055 1453.94Z" fill="#B4E7C7"/>
<path d="M-163.207 1367.18H-109.287M-109.287 1367.18H18.9237M-109.287 1367.18L-88.3142 1297.68M-48.1771 1164.68L9.56015 1074.81M-48.1771 1164.68L2.14853 1187.44M-48.1771 1164.68L-58.2113 1197.93M238.199 718.936L340.049 687.783M238.199 718.936L198.168 781.244M238.199 718.936L192.667 656.629M340.049 687.783L350.833 781.244M340.049 687.783L319.679 594.321M350.833 781.244V893.878M350.833 781.244H283.732M350.833 781.244H429.317M350.833 893.878H283.732M350.833 893.878L367.608 894.393M283.732 893.878L283.128 919.041M283.732 893.878L280.137 861.526M350.833 1054.44L345.305 1053.6C308.047 1047.91 280.815 1015.43 281.719 977.754M350.833 1054.44L356.824 1133.52M350.833 1054.44L367.608 894.393M356.824 1133.52V1182.65M356.824 1133.52L238.199 1131.08M356.824 1133.52L619.236 1136.5M124.368 1128.73V1078.4M124.368 1128.73L181.284 1129.9M124.368 1128.73L117.916 1149.1M124.368 1078.4L148.194 1073.3C165.595 1069.57 181.819 1061.64 195.448 1050.19L281.719 977.754M124.368 1078.4L114.782 1066.42M281.719 977.754L283.128 919.041M283.128 919.041L164.498 976.591C150.08 983.585 138.176 994.865 130.414 1008.88L112.628 1041.02C108.131 1049.14 108.982 1059.17 114.782 1066.42M114.782 1066.42L22.5184 1073.78M9.56015 1074.81L22.5184 1073.78M9.56015 1074.81L71.9163 977.754M9.56015 1074.81L-48.1771 1025.68M22.5184 1073.78L25.8601 1106C28.3542 1130.06 22.7796 1154.25 10.0136 1174.79L2.14853 1187.44M2.14853 1187.44L29.7078 1202.12M168.702 1276.11L139.443 1260.54M168.702 1276.11L163.909 1367.18M168.702 1276.11L196.262 1286.02M245.389 1303.67H356.824M245.389 1303.67L249.685 1323.93C252.391 1336.68 252.786 1349.82 250.852 1362.71L250.182 1367.18M245.389 1303.67L268.155 1253.35M245.389 1303.67L196.262 1286.02M356.824 1303.67V1367.18M356.824 1303.67V1247.59M356.824 1182.65V1211.41M356.824 1182.65L274.146 1180.24M233.407 1179.06L238.199 1131.08M233.407 1179.06L274.146 1180.24M233.407 1179.06L196.262 1286.02M238.199 1131.08L181.284 1129.9M181.284 1129.9L139.443 1260.54M139.443 1260.54L115.13 1247.59M90.8174 1234.65L117.916 1149.1M90.8174 1234.65L29.7078 1202.12M90.8174 1234.65L115.13 1247.59M117.916 1149.1L75.2404 1152.7M29.7078 1202.12L26.987 1243.76M18.9237 1367.18L23.0728 1303.67M18.9237 1367.18H163.909M23.0728 1303.67L-88.3142 1297.68M23.0728 1303.67L26.987 1243.76M-88.3142 1297.68L-68.2456 1231.18M-68.2456 1231.18L26.987 1243.76M-68.2456 1231.18L-58.2113 1197.93M115.13 1247.59L107.593 1364.78M163.909 1367.18H250.182M250.182 1367.18H356.824M356.824 1367.18H429.317M356.824 1211.41H429.317M356.824 1211.41V1247.59M501.81 1211.41H429.317M501.81 1211.41V1268.92M501.81 1211.41L619.236 1202.12M429.317 1367.18V1211.41M429.317 1367.18C469.354 1367.18 501.81 1334.72 501.81 1294.69V1268.92M356.824 1247.59L268.155 1253.35M268.155 1253.35L274.146 1180.24M155.058 848.345L280.137 861.526M155.058 848.345L198.168 781.244M155.058 848.345L71.9163 977.754M280.137 861.526L283.732 781.244M283.732 781.244H198.168M510.197 781.244H455.079M455.079 781.244L432.285 660.385C430.317 649.949 429.884 639.281 431.002 628.719L435.907 582.338M455.079 781.244H429.317M435.907 582.338L419.132 582.139M435.907 582.338H510.197M335.256 581.14L355.1 470.895C356.247 464.523 356.824 458.061 356.824 451.586V399.01M335.256 581.14L419.132 582.139M335.256 581.14L319.679 594.321M362.815 461.317L429.317 467.309M429.317 467.309L419.132 582.139M429.317 467.309L514.99 469.705M-58.2113 1197.93L-65.0989 1195.82C-108.229 1182.62 -126.7 1131.79 -102.097 1093.98M-102.097 1093.98L-58.2113 1131.08M-102.097 1093.98L-86.1463 1073.78M-48.1771 1025.68L-86.1463 1073.78M-48.1771 1025.68L-16.764 977.754M68.0511 848.345L9.93701 937.014M68.0511 848.345L-64.9523 798.02M68.0511 848.345L133.46 733.315M192.667 656.629L227.587 632.736C234.638 627.912 242.231 623.933 250.21 620.882L319.679 594.321M192.667 656.629L165.108 691.377M71.9163 977.754L9.93701 937.014M9.93701 937.014L-16.764 977.754M-86.1463 1073.78L-144.035 1025.68M-16.764 977.754L-86.1463 937.014M133.46 733.315L-2.64439 625.475M133.46 733.315C136.182 728.529 139.266 723.96 142.687 719.646L165.108 691.377M165.108 691.377L42.8883 561.969M779.799 907.058L718.689 905.181M429.317 781.244V896.289M429.317 896.289L367.608 894.393M429.317 896.289L583.289 901.02M779.799 1138.32L686.337 1137.26M501.81 1268.92H583.289M779.799 1268.92H718.689M619.236 1202.12V1136.5M619.236 1202.12V1268.92M619.236 1136.5L686.337 1137.26M619.236 1268.92H583.289M619.236 1268.92H647.994M686.337 1137.26V1202.12M686.337 1202.12L779.799 1211.41M686.337 1202.12C673.639 1207.91 664.75 1219.75 662.736 1233.56L657.579 1268.92M657.579 1268.92H647.994M657.579 1268.92H718.689M583.289 1268.92V1409.12M647.994 1268.92L638.408 1409.12M718.689 1268.92L709.103 1409.12M510.197 1409.12H771.411M519.783 1064.03H578.496M771.411 1064.03H578.496M510.197 970.564H526.063C542.435 970.564 558.597 974.253 573.349 981.355L583.289 986.141M583.289 986.141L609.027 1000.44C631.295 1012.81 659.29 1006.68 674.355 986.141M583.289 986.141L578.496 1064.03M674.355 986.141H771.411M674.355 986.141V903.818M674.355 903.818L652.786 903.156M674.355 903.818L718.689 905.181M614.443 901.978V945.402M614.443 901.978L583.289 901.02M614.443 901.978L652.786 903.156M583.289 901.02L578.496 665.016M578.496 665.016L523.378 661.421M578.496 665.016H647.994M652.786 903.156L647.994 665.016M647.994 665.016L712.698 671.007M718.689 905.181L712.698 671.007M712.698 671.007H779.799M523.378 581.14L869.666 586.041M1031.43 588.33L957.136 587.278M523.378 502.057H588.082M779.799 502.057H723.482M523.378 318.728L588.082 337.082M588.082 337.082V502.057M588.082 337.082L652.786 355.437M588.082 502.057H661.174M664.769 358.836L661.174 502.057M664.769 358.836L723.482 375.49M664.769 358.836L652.786 355.437M661.174 502.057H723.482M723.482 375.49V502.057M723.482 375.49L719.207 289.68C718.09 267.256 723.925 245.035 735.914 226.052L775.006 164.157L792.052 143.864C797.437 137.453 803.683 131.816 810.611 127.115L814.88 124.218C827.156 115.888 841.65 111.435 856.485 111.435M723.482 375.49L874.459 418.317M652.786 355.437V245.274C652.786 225.896 657.952 206.868 667.752 190.15L688.264 155.16C691.764 149.189 695.825 143.565 700.391 138.365L769.634 59.5047C776.27 51.9473 784.941 46.4594 794.611 43.6965C801.44 41.7454 808.594 41.203 815.639 42.1024L861.278 47.9286M861.278 47.9286L863.312 73.6886C864.335 86.6491 861.983 99.6536 856.485 111.435M861.278 47.9286H936.767M1120.1 47.9286H1206.37L1243.51 52.7215M1120.1 47.9286H1037.42M1120.1 47.9286L1118.88 111.435M1111.71 485.615L1139.67 493.548C1167.13 501.337 1195.35 483.88 1200.64 455.835L1200.86 454.702C1202.12 448.021 1201.8 441.138 1199.93 434.601L1198.85 430.815C1196.74 423.426 1192.1 417.013 1185.75 412.692C1173.8 404.565 1168.57 389.577 1172.87 375.781L1206.37 268.403L1268.21 92.8397C1274.62 74.6538 1262.64 55.189 1243.51 52.7215M1111.71 485.615L1116.38 241.666M1111.71 485.615L1031.43 462.843M856.485 111.435L879.252 164.157M879.252 164.157L856.485 232.456M879.252 164.157L929.577 154.571M856.485 232.456L791.781 244.438M856.485 232.456L874.459 233.354M929.577 154.571L932.377 147.953C939.197 131.833 942.035 114.307 940.65 96.8588L936.767 47.9286M929.577 154.571C944.154 169.148 952.344 188.919 952.344 209.534V237.249M952.344 237.249L1116.38 241.666M952.344 237.249V440.41M952.344 237.249L874.459 233.354M1116.38 241.666L1152.81 243.878C1158.85 244.245 1164.87 242.98 1170.25 240.216C1178.75 235.849 1184.99 228.077 1187.43 218.837L1202.77 160.562L1218.62 118.624M1116.38 241.666L1118.88 111.435M936.767 47.9286H1037.42M1037.42 47.9286L1031.43 462.843M1031.43 462.843L957.136 441.769M952.344 440.41L874.459 418.317M952.344 440.41L957.136 441.769M874.459 233.354V418.317M874.459 418.317L869.666 586.041M1243.51 52.7215L1218.62 118.624M1218.62 118.624L1118.88 111.435M869.666 586.041L957.136 587.278M957.136 441.769V587.278" stroke="white" stroke-width="17" stroke-linejoin="round"/>
<path d="M794.177 669.809H875.657M1112.91 485.282L1041.01 585.027M1041.01 585.027L1002.32 638.704C988.245 658.236 965.636 669.809 941.559 669.809M1041.01 585.027L1099.73 627.871M1099.73 627.871L1156.07 553.965C1179.16 523.679 1212.84 503.236 1250.36 496.732L1273.28 492.761C1278.99 491.771 1284.77 491.273 1290.56 491.273C1333.46 491.273 1371.7 464.237 1386 423.796L1396.89 393.019M1099.73 627.871L1058.18 696.779C1053.15 705.116 1046.94 712.677 1039.74 719.226L1016.47 740.379C997.594 757.536 992.158 785.016 1003.08 808.067C1005.19 812.534 1007.87 816.712 1011.05 820.499L1099.73 926.23M1099.73 627.871L1117.52 647.962C1130.3 662.393 1140.2 679.139 1146.69 697.294L1181.22 793.983C1183.56 800.541 1184.05 807.618 1182.63 814.436C1180.22 825.989 1183.34 838.005 1191.06 846.928L1197.47 854.336M1099.73 926.23L1025.44 964.573M1099.73 926.23L1112.91 939.836M1025.44 964.573L1000.27 950.195M1025.44 964.573L1018.55 1014.9M941.559 916.644V669.809M941.559 916.644L1000.27 950.195M941.559 916.644L867.316 969.366M941.559 669.809H875.657M875.657 669.809L870.219 865.121M861.278 1186.25L863.547 1104.77M863.547 1104.77H1006.26M863.547 1104.77L865.815 1023.29M1006.26 1104.77L1011.06 1186.25M1006.26 1104.77L1012.98 1055.64M1011.06 1186.25H863.547M1011.06 1186.25L1009.55 1349.2M865.815 1023.29L919.991 1027.4M865.815 1023.29L867.316 969.366M1015.85 1034.67L919.991 1027.4M1015.85 1034.67L1018.55 1014.9M1015.85 1034.67L1012.98 1055.64M919.991 1027.4L1000.27 950.195M867.316 969.366L870.219 865.121M1018.55 1014.9L1091.8 983.745M1136.87 964.573L1213.56 1014.9M1136.87 964.573L1112.91 939.836M1136.87 964.573V1064.11M1136.87 964.573L1091.8 983.745M1136.87 1271.32H1086.54M1136.87 1271.32L1170.96 1272.15M1136.87 1271.32V1064.11M789.384 1271.32H1086.54M1334.58 1276.11L1253.1 1274.14M1334.58 1276.11L1332.75 1356.99M1334.58 1276.11V1096.38M1006.26 1705.08L1008.07 1509.77M789.384 1349.2H1009.55M1009.55 1349.2L1008.79 1431.88M1008.79 1431.88H784.591M1008.79 1431.88L1008.07 1509.77M1008.79 1431.88C1051.73 1431.88 1086.54 1397.07 1086.54 1354.12V1271.32M1091.34 1431.88L1084.53 1549.31M1081.75 1597.24L842.106 1591.25M1081.75 1597.24V1683.51M1081.75 1597.24L1084.53 1549.31M842.106 1591.25V1509.77M842.106 1591.25L836.115 1652.36M842.106 1509.77H1008.07M842.106 1509.77H800.973C779.998 1509.77 759.352 1504.54 740.9 1494.57L729.729 1488.53C726.381 1486.72 723.313 1484.44 720.622 1481.74C713.246 1474.37 709.103 1464.37 709.103 1453.94V1410.31M637.209 1410.31V1496.59M1134.47 1655.95L1170.96 1551.19M1084.53 1549.31H1169.63C1170.6 1549.31 1171.28 1550.27 1170.96 1551.19M1170.96 1551.19L1253.1 1549.31M1170.96 1551.19V1272.15M1253.1 1549.31L1291.14 1553.87C1304.95 1555.53 1318.75 1550.76 1328.59 1540.92M1253.1 1549.31V1274.14M1328.59 1540.92L1329.16 1515.76M1328.59 1540.92C1328.9 1572.12 1354.28 1597.24 1385.48 1597.24H1478.51C1528.98 1597.24 1575.01 1568.38 1596.99 1522.95M1253.1 1274.14L1170.96 1272.15M1329.16 1515.76L1330.92 1437.87M1329.16 1515.76L1561.04 1521.98M1596.99 1522.95L1561.04 1521.98M1596.99 1522.95L1641.77 1437.87M1330.92 1437.87H1343.15C1425.05 1437.87 1492.01 1372.59 1494.1 1290.72L1496.08 1213.03C1496.25 1206.4 1495.3 1199.8 1493.28 1193.49C1488.34 1178.15 1477.35 1165.5 1462.85 1158.48L1388.5 1122.48M1330.92 1437.87L1332.75 1356.99M1332.75 1356.99H1392C1395.21 1356.99 1398.36 1356.19 1401.18 1354.67C1407.39 1351.3 1411.26 1344.8 1411.26 1337.73V1203.02M1334.58 1096.38L1388.5 1122.48M1334.58 1096.38L1286.65 1064.11M1213.56 1014.9L1207.57 1186.25M1213.56 1014.9L1274.07 1055.64M1274.07 1055.64V1186.25M1274.07 1055.64L1286.65 1064.11M1112.91 939.836L1197.47 854.336M1260.29 790.83L1350.16 738.108M1260.29 790.83L1197.47 854.336M1260.29 790.83L1388.5 907.059M1350.16 738.108L1347.48 720.894C1343.73 696.783 1345.88 672.122 1353.74 649.022L1366.24 612.294M1350.16 738.108L1453.72 876.563C1460.54 885.681 1466.31 895.54 1470.91 905.954L1479.88 926.23M1350.16 738.108L1523.9 686.528M1442.42 497.265V447.705C1442.42 420.88 1423.27 397.878 1396.89 393.019M1442.42 497.265L1388.5 561.554M1442.42 497.265C1452.71 503.6 1464.09 507.974 1475.98 510.164L1617.36 536.207M1396.89 393.019L1362.14 345.09M1396.89 669.809C1405.02 650.84 1397.26 628.805 1379.04 619.108L1366.24 612.294M1366.24 612.294L1375.9 583.911C1378.68 575.744 1382.95 568.164 1388.5 561.554M1366.24 612.294L1290.35 564.877C1284.73 561.369 1278.54 558.886 1272.05 557.544C1256.21 554.265 1239.72 558.014 1226.85 567.821L1221.94 571.555M1197.47 854.336L1211.8 870.342C1226.38 886.637 1244.32 899.571 1264.39 908.25L1322.6 933.42M1604.18 1135.92L1522.08 1015.51C1516.91 1007.93 1512.45 999.893 1508.74 991.502L1479.88 926.23M1604.18 1135.92L1608.97 1210.21M1604.18 1135.92L1607.89 1135.1C1626.81 1130.89 1646.36 1130.37 1665.47 1133.55L1679.67 1135.92M1580.21 1191.04L1559.84 1163.48L1492.14 1083.5C1470.09 1057.44 1430.28 1056.33 1406.81 1081.11C1400.29 1087.99 1395.59 1096.37 1393.11 1105.51L1388.5 1122.48M1286.65 1064.11L1328.59 999.322M1328.59 999.322L1308.22 988.538M1328.59 999.322L1340.58 1009.61C1347.01 1015.11 1356.95 1012.61 1360 1004.71M1366.24 988.538L1360 1004.71M1360 1004.71L1388.5 1023.29M1479.88 926.23L1495.06 919.619C1514.08 911.334 1534.61 907.059 1555.35 907.059H1570.63M1570.63 907.059L1589.8 983.745M1570.63 907.059L1622.15 895.076M1622.15 895.076L1612.57 806.407M1622.15 895.076L1652.06 887.053C1664.82 883.63 1677.97 881.896 1691.18 881.896H1698.84M1698.84 881.896L1688.75 930.678C1687.49 936.767 1686.86 942.969 1686.86 949.188V969.611C1686.86 991.179 1698.87 1010.95 1718.01 1020.89M1698.84 881.896H1726.4M1726.4 881.896L1724.83 874.264C1720.34 852.462 1711.09 831.922 1697.73 814.114L1687.1 799.943C1667.5 773.806 1656.9 742.015 1656.9 709.343V669.809M1726.4 881.896C1754.41 886.158 1778.97 862.979 1776.34 834.771L1764.74 710.549M1656.9 669.809H1602.16C1587.6 669.809 1573.13 671.913 1559.18 676.054L1523.9 686.528M1656.9 669.809L1698.84 681.792M1523.9 686.528V606.303M1523.9 606.303L1567.72 600.726C1581.81 598.933 1594.54 591.402 1602.89 579.913C1606.91 574.396 1609.78 568.137 1611.36 561.499L1617.36 536.207M1523.9 606.303L1388.5 561.554M1625.75 500.859L1617.36 536.207M1205.17 271.998L1308.22 309.143M1227.94 201.302L1406.47 281.583M1406.47 281.583L1396.89 309.143M1406.47 281.583L1436.79 236.105C1455.33 208.293 1446.25 170.58 1417.08 154.258L1384.76 136.176C1374.58 130.48 1371.04 117.55 1376.89 107.461C1383.1 96.7629 1378.71 83.0421 1367.44 77.9437L1287.85 41.9379M1287.85 41.9379L1281.86 59.9113M1287.85 41.9379V-2.39654M794.177 861.526L870.219 865.121M1561.04 1521.98L1570.63 1210.21M1679.67 1135.92L1656.9 1055.64M1679.67 1135.92L1671.28 1222.19M1679.67 1135.92L1794.7 1158.69M1794.7 1158.69L1777.92 1222.19M1794.7 1158.69L1836.64 1169.47M1836.64 1169.47L1877.38 1163.48M1836.64 1169.47L1844.49 1133.33C1846.92 1122.17 1841.46 1110.78 1831.24 1105.66C1819.45 1099.77 1814.27 1085.73 1819.39 1073.58L1829.91 1048.67C1831.99 1043.76 1834.78 1039.18 1838.2 1035.09L1891.34 971.534C1893.2 969.302 1894.73 966.81 1895.88 964.136C1902.71 948.187 1894.58 929.789 1878.18 924.113L1783.91 891.482M1877.38 1163.48L1900.14 1068.82M1877.38 1163.48L1843.83 1290.49M1442.42 231.258L1490.35 257.619M1490.35 257.619L1442.42 364.261M1490.35 257.619L1505.31 235.371C1521.84 210.8 1554.59 203.24 1580.21 218.077M1580.21 218.077L1545.47 281.583M1580.21 218.077L1612.57 236.051M1612.57 236.051L1597.8 254.708C1593.11 260.631 1593.09 268.998 1597.76 274.938C1601.03 279.106 1602.08 284.604 1600.57 289.684L1593.07 314.915C1590.91 322.198 1587.52 329.06 1583.06 335.211L1555.05 373.847M1612.57 236.051L1621.23 221.234C1638.22 192.195 1671.96 177.381 1704.83 184.527M-64.9522 740.505L-141.639 696.17M-12.2302 605.105L-24.4619 567.766C-31.3989 546.59 -33.5631 524.141 -30.7992 502.029L-29.0054 487.679M-29.0054 487.679H-86.5203M-29.0054 487.679L-34.9965 438.551M-34.9965 438.551L-110.485 431.362M-34.9965 438.551L-35.7607 435.622C-44.5647 401.873 -41.4142 366.118 -26.8445 334.429L-17.6793 314.494C-7.03066 291.333 9.30809 271.245 29.8143 256.102L59.3137 234.318C70.6742 225.929 83.1554 219.175 96.3925 214.253L106.814 210.379C146.968 195.45 178.89 164.168 194.63 124.326L246.587 -7.18945M136.35 458.921L134.233 387.992C134.049 381.823 135.136 375.683 137.429 369.953C142.773 356.591 141.399 341.478 133.731 329.3L129.999 323.372C127.103 318.773 125.566 313.448 125.566 308.013C125.566 292.093 138.472 279.187 154.392 279.187H171.634C174.466 279.187 177.293 279.448 180.077 279.967L183.143 280.539C220.147 287.438 247.301 319.253 248.3 356.882L250.182 427.767M386.78 348.684L359.079 317.24C348.359 305.072 342.445 289.412 342.445 273.196M342.445 273.196L329.513 259.956C306.604 236.501 298.947 202.1 309.746 171.143M342.445 273.196C345.59 270.051 382.269 225.22 409.902 191.312C420.78 177.964 429.268 162.851 435.033 146.626L479.043 22.7662M292.12 155.77L309.27 169.49C309.763 169.885 309.954 170.547 309.746 171.143M309.746 171.143L365.212 73.0918M637.209 46.7308C613.426 22.9472 581.168 9.58574 547.533 9.58574H536.558M142.341 987.34L220.226 855.535M208.244 1127.53C216.009 1101.13 232.373 1078.08 254.737 1062.05L283.732 1041.26M1074.56 1182.65L1073.36 1059.23M1073.36 1059.23L1012.98 1055.64M1073.36 1059.23L1091.34 1060.61M1136.87 1064.11L1091.34 1060.61M1091.34 1060.61L1091.8 983.745M1752.76 1342.02L1683.52 1390.48C1666.03 1402.73 1651.71 1418.98 1641.77 1437.87M-166.802 2203.54L-161.079 2187.96M479.043 1610.42L268.053 1592.17C260.941 1591.56 253.794 1591.45 246.666 1591.84L229.812 1592.78M229.812 1592.78L131.446 1598.24C101.496 1599.91 73.305 1612.92 52.6056 1634.62L43.6271 1644.04C38.3975 1649.53 34.3504 1656.03 31.737 1663.14M229.812 1592.78L213.839 1627.19M168.702 2031L203.135 1939.17C206.533 1930.11 209.052 1920.75 210.657 1911.21L213.839 1892.29M168.702 2031L18.9653 2024.49C9.22893 2024.06 -0.056381 2028.61 -5.68946 2036.56C-12.5233 2046.21 -24.5761 2050.68 -36.0469 2047.81L-103.41 2031M168.702 2031L220.226 2052.56M-103.41 2031L-129.823 2102.89M-103.41 2031L31.737 1663.14M220.226 2052.56L196.989 2075.26C178.855 2092.97 154.511 2102.89 129.161 2102.89L-30.0036 2108.53C-36.3695 2108.76 -42.5077 2110.96 -47.5677 2114.83C-55.4669 2120.87 -65.8022 2122.71 -75.3014 2119.77L-129.823 2102.89M220.226 2052.56L368.806 1888.41M-129.823 2102.89L-161.079 2187.96M-161.079 2187.96L-35.2336 2233.82C-10.0996 2242.98 17.2132 2244.34 43.1322 2237.72C54.108 2234.92 64.6805 2230.72 74.5924 2225.24L272.263 2115.87C287.776 2107.28 301.656 2096.03 313.268 2082.64L325.326 2068.72C346.558 2044.22 359.342 2013.54 361.787 1981.22L368.806 1888.41M368.806 1888.41L380.2 1838.63C387.577 1806.41 405.327 1777.49 430.725 1756.33L445.218 1744.25C461.977 1730.28 481.564 1720.11 502.63 1714.44L521.658 1709.32C549.388 1701.85 578.673 1702.45 606.076 1711.04L644.399 1723.05M368.806 1888.41L348.83 1804.7C345.391 1790.29 339.85 1776.46 332.385 1763.66L299.69 1707.61C289.941 1690.9 277.071 1676.22 261.781 1664.36L213.839 1627.19M213.839 1627.19L213.133 1628.72C195.494 1666.72 194.44 1710.35 210.221 1749.16L213.678 1757.66C224.226 1783.6 227.351 1811.97 222.706 1839.58L213.839 1892.29M213.839 1892.29H77.6369M-17.0231 1814.12L-12.6268 1811.92C4.19673 1803.51 24.6359 1808.49 35.699 1823.7M50.0777 1858.45L35.699 1823.7M35.699 1823.7L148.332 1782.96M-109.287 1368.38V1526.03C-109.287 1547.59 -99.6103 1568.01 -82.9256 1581.66M-30.2036 1368.38L-25.4107 1516.96M109.989 1368.38V1455.85M257.371 1368.38V1446.26M31.737 1663.14L-33.2561 1635.16C-44.2059 1630.45 -56.9544 1633.6 -64.4552 1642.86C-69.3346 1648.89 -76.6009 1652.49 -84.3525 1652.72L-112.881 1653.55M1641.77 1437.87L1768.34 1540.92L1900.14 1630.79M1704.83 184.527L1726.4 125.814M1704.83 184.527L1714.38 195.666C1727.06 210.467 1742.5 222.671 1759.82 231.605L1810.27 257.619M1726.4 125.814L1686.86 99.4528M1726.4 125.814L1810.27 159.364M1810.27 257.619L1849.82 251.628M1810.27 257.619L1839.03 291.169M1839.03 291.169L1849.82 345.09M1839.03 291.169L1734.76 249.874C1723.81 245.538 1711.87 244.342 1700.28 246.423L1685.88 249.007C1676.62 250.669 1668.57 256.334 1663.89 264.486L1658.04 274.659C1650.74 287.348 1657.23 303.521 1671.28 307.641M1849.82 345.09L1771.02 323.316C1762.97 321.093 1754.49 320.941 1746.37 322.874C1737.99 324.869 1729.24 324.643 1720.98 322.219L1671.28 307.641M1849.82 345.09L1893.66 351.777C1910.39 354.33 1927.28 348.2 1938.49 335.504M1671.28 307.641L1656.9 355.874M1698.84 681.792L1721.07 586.499C1722.89 578.732 1720.43 570.588 1714.62 565.123C1712.12 562.775 1709.12 561.032 1705.84 560.029L1680.87 552.383M1698.84 681.792L1709.69 686.528M1764.74 710.549L1709.69 686.528M1764.74 710.549C1769.53 710.549 1818.66 699.366 1842.63 693.774M1709.69 686.528V719.792C1709.69 735.893 1712.27 751.891 1717.32 767.179L1718.01 769.262M1842.63 693.774L1849.37 650.349C1852.03 633.183 1858.48 616.826 1868.26 602.467C1883.45 580.152 1905.9 563.781 1931.79 556.131L1944.48 552.383M1842.63 693.774L1887.22 701.644C1898.2 703.581 1908.92 706.726 1919.21 711.023L1984.02 738.108M1166.83 397.812L1112.91 406.199M941.559 46.7308V-2.39654M1121.29 46.7308V-2.39654M1247.11 46.7308L1250.7 1.19814" stroke="white" stroke-width="17" stroke-linejoin="round"/>
<path d="M-168 1440.57H512.594M512.594 1440.57L523.898 472.877C524.335 435.549 510.928 399.383 486.266 371.358L471.854 354.98M512.594 1440.57L499.313 1582.47C493.58 1643.72 525.585 1702.33 580.218 1730.62L593.765 1737.64C613.69 1747.96 631.065 1762.59 644.627 1780.46L653.169 1791.72C668.636 1812.11 689.032 1828.24 712.44 1838.58L915.992 1928.52C928.19 1933.91 941.049 1937.66 954.232 1939.67L1044.55 1953.46C1075.01 1958.11 1106.17 1953.33 1133.83 1939.76L1232.73 1891.26C1263.01 1876.41 1297.39 1872.12 1330.39 1879.08L1432.83 1900.69M471.854 354.98L346.816 475.317C324.475 496.819 296.055 510.921 265.419 515.708L222.645 522.391C205.973 524.997 189.855 530.378 174.962 538.312L96.807 579.945C78.6274 589.63 62.6214 602.931 49.7737 619.032L-5.00461 687.678C-18.4528 704.531 -28.1359 724.068 -33.4027 744.976L-60.7025 853.347C-63.5264 864.557 -67.6283 875.406 -72.9277 885.681L-123.666 984.05L-162.009 1040.37M471.854 354.98L543.748 267.509L606.055 166.858M606.055 166.858L706.707 71M606.055 166.858L739.873 276.115C774.998 304.792 795.375 347.737 795.375 393.081V1025.99L789.983 1262.04M734.266 1664.47L760.627 1590.35L780.182 1515.07C783.112 1503.79 784.726 1492.21 784.992 1480.55L789.983 1262.04M789.983 1262.04L1524.45 1274.27C1561.16 1274.88 1596.39 1288.85 1623.55 1313.56L1740.78 1420.2M1740.78 1420.2L1706.37 1452.15C1675.73 1480.61 1632.3 1490.71 1592.24 1478.69L1584.48 1476.36C1576.9 1474.09 1568.99 1473.11 1561.08 1473.47C1523.52 1475.18 1493.94 1506.13 1493.94 1543.73V1753.31M1740.78 1420.2L1810.6 1378.72C1819.15 1373.64 1828.18 1369.41 1837.56 1366.11L1928.9 1333.93L2012.78 1315.96M1493.94 1753.31L1282.39 1724.97C1256.89 1721.55 1230.95 1724.71 1207.02 1734.13L1118 1769.18C1100.38 1776.11 1081.62 1779.67 1062.68 1779.67H951.655C921.642 1779.67 892.31 1770.73 867.403 1753.98L651.076 1608.54C633.25 1596.55 613.071 1588.51 591.888 1584.94L273.41 1531.34C265.128 1529.94 256.745 1529.24 248.346 1529.24H139.696C117.758 1529.24 96.0842 1534.02 76.1816 1543.25L12.7953 1572.64C-12.1986 1584.23 -33.5459 1602.43 -48.9351 1625.28L-60.0374 1641.77C-63.3086 1646.63 -66.1769 1651.74 -68.6137 1657.07C-86.0942 1695.27 -124.244 1719.76 -166.252 1719.76H-168M1493.94 1753.31L2012.78 1928.25M1432.83 1900.69L1493.94 1998.95L1554.21 2077.47C1566.62 2093.65 1582.19 2107.15 1599.97 2117.15L1692.42 2169.16C1702.26 2174.69 1711.45 2181.31 1719.81 2188.9L1760.22 2225.53C1784.17 2247.25 1814.45 2260.7 1846.62 2263.92L2012.78 2280.53M1432.83 1900.69L1564.27 1932.49C1575.66 1935.25 1586.69 1939.32 1597.14 1944.63L1624.67 1958.61C1645.86 1969.38 1669.29 1974.98 1693.05 1974.98H1829.39C1853.83 1974.98 1877.9 1980.92 1899.54 1992.27L2012.78 2051.67" stroke="white" stroke-width="49" stroke-linejoin="round"/>
</g>
</g>
<defs>
<clipPath id="clip0_11_131">
<rect width="1211.11" height="1325" fill="white"/>
</clipPath>
<clipPath id="clip1_11_131">
<rect width="2164" height="2264.65" fill="white" transform="translate(-168)"/>
</clipPath>
</defs>
</svg>
