<svg width="1212" height="1325" viewBox="0 0 1212 1325" fill="none" xmlns="http://www.w3.org/2000/svg">
<g clip-path="url(#clip0_11_159)">
<g clip-path="url(#clip1_11_159)">
<rect width="2818" height="3083" transform="translate(-198 -879)" fill="#85D5EB"/>
<path d="M-118.902 545.315L-172.044 612.2C-181.601 624.229 -186.803 639.138 -186.803 654.501V2132.27C-186.803 2169.83 -156.358 2200.27 -118.803 2200.27H2779.68C2817.23 2200.27 2847.68 2169.83 2847.68 2132.27V-1292.49C2847.68 -1330.04 2817.23 -1360.49 2779.68 -1360.49H1465.92C1437.48 -1360.49 1414.42 -1337.43 1414.42 -1308.98C1414.42 -1306 1414.16 -1303.02 1413.64 -1300.08L1399.56 -1219.83C1397.19 -1206.28 1401.76 -1192.43 1411.74 -1182.94L1425.4 -1169.96C1429.99 -1165.6 1431.3 -1158.8 1428.64 -1153.05L1427.04 -1149.59C1424.27 -1143.57 1416.94 -1141.23 1411.19 -1144.51C1404.01 -1148.62 1395 -1143.86 1394.34 -1135.61L1392.57 -1113.55C1392.21 -1109.05 1390.66 -1104.73 1388.07 -1101.03L1352.62 -1050.39C1344.97 -1039.46 1331.12 -1034.76 1318.4 -1038.78C1309.5 -1041.59 1299.81 -1040.18 1292.08 -1034.95L1257.95 -1011.85C1220.45 -986.461 1217.77 -932.203 1252.59 -903.25L1310.99 -854.687C1338.24 -832.022 1342.02 -791.577 1319.43 -764.26C1297.43 -737.658 1258.35 -733.168 1230.9 -754.089L1110.54 -845.792C1095.78 -857.035 1074.77 -854.586 1063 -840.251C1050.93 -825.566 1053.03 -803.888 1067.68 -791.784L1084.1 -778.224L1151.32 -724.12C1156.28 -720.125 1156.68 -712.707 1152.17 -708.202C1148.44 -704.466 1142.54 -704.012 1138.27 -707.133L1078.64 -750.796C1058.22 -765.745 1029.46 -760.648 1015.42 -739.592L1014.97 -738.919C1005.87 -725.274 1005.3 -707.649 1013.5 -693.444L1018.88 -684.123C1024.45 -674.458 1023.57 -662.371 1016.66 -653.613C1007.47 -641.971 990.654 -639.816 978.824 -648.764L884.181 -720.354C866.389 -733.811 842.082 -734.713 823.342 -722.61C793.94 -703.621 790.633 -661.876 816.678 -638.495L899.324 -564.301C916.172 -549.176 918.506 -523.619 904.677 -505.692C890.304 -487.061 863.674 -483.337 844.741 -497.311L662.857 -631.559C651.122 -640.22 635.468 -641.407 622.562 -634.614C598.726 -622.069 595.129 -589.402 615.664 -571.971L711.23 -490.852C723.18 -480.708 724.14 -462.602 713.33 -451.251C703.506 -440.935 687.397 -439.919 676.353 -448.917L612.015 -501.341C602.034 -509.474 587.867 -509.991 577.319 -502.608C566.004 -494.687 550.657 -495.919 540.75 -505.543L525.195 -520.653C506.805 -538.518 477.707 -539.046 458.68 -521.861L445.723 -510.158C439.016 -504.1 429.327 -502.661 421.149 -506.51C410.784 -511.388 398.408 -507.667 392.452 -497.881L389.832 -493.577C382.41 -481.384 385.337 -465.56 396.629 -456.829L507.311 -371.251C535.013 -349.831 539.657 -309.808 517.594 -282.614C495.611 -255.518 455.675 -251.727 428.986 -274.202L360.997 -331.456C347.115 -343.146 326.347 -341.197 314.884 -327.128C303.676 -313.373 305.576 -293.171 319.152 -281.747L399.248 -214.35C425.315 -192.415 427.014 -152.867 402.924 -128.778C381.353 -103.097 342.961 -99.9792 317.528 -121.843L309.113 -129.077C280.56 -153.622 237.498 -150.293 213.058 -121.651L160.718 -60.3156C147.359 -44.6608 146.519 -21.8748 158.689 -5.27917L162.507 -0.0726318C172.207 13.1537 171.745 31.2626 161.385 43.9777C148.545 59.736 151.281 82.9913 167.428 95.3391L176.884 102.571C190.049 112.638 191.761 131.823 180.586 144.062C170.321 155.305 152.992 156.392 141.402 146.519L126.936 134.196C118.302 126.841 105.528 127.114 97.2166 134.832C90.2901 141.264 80.0679 142.646 71.6818 138.286L63.2894 133.922C48.9586 126.469 31.412 129.542 20.4657 141.42L-23.3256 188.938C-39.1246 206.082 -45.0399 230.124 -38.9987 252.641L-30.4962 284.332C-28.9544 290.079 -28.1735 296.003 -28.1735 301.953V342.196C-28.1735 351.317 -24.5504 360.064 -18.1012 366.513C-4.98676 379.628 -4.63432 400.779 -17.3046 414.323L-21.2642 418.556C-36.4417 434.78 -61.8741 435.697 -78.1804 420.607L-143.133 360.502C-158.004 346.741 -182.03 351.95 -189.866 370.636C-194.723 382.219 -191.624 395.612 -182.17 403.884L-127.365 451.839C-100.045 475.744 -96.3197 516.892 -118.902 545.315Z" fill="#F0F0F0"/>
<path d="M1429.94 1660.05H1200.96H1162.12V1386.1H943.363V1292.05H802.297V1099.88H888.163V1014.01H857.497V954.722H888.163V911.79H1023.1V999.7H1068.07V975.167H1151.89V1003.79H1225.49L1229.58 1050.81H1268.43V1003.79H1245.94V856.59H1472.87V905.656L1820.42 897.478V1040.59H1953.31V887.256H2026.91V1124.41H1953.31V1171.43H1875.62V1377.92H1705.94V1322.72H1667.09V1467.87H1526.03V1553.74H1429.94V1660.05Z" fill="#F9F0DE"/>
<path d="M457.132 1827.94L469.738 1837.7C495.042 1857.29 491.004 1899.58 466.874 1920.6C425.571 1956.58 358.735 1901.31 378.332 1850.16C390.548 1818.28 430.132 1807.03 457.132 1827.94Z" fill="#B4E7C7"/>
<path d="M729.82 1656.97L505.567 1476.18L-102.04 991.538C-113.091 982.723 -115.697 966.984 -108.077 955.078C-99.2701 941.318 -80.505 938.174 -67.695 948.314L552.34 1439.1C562.672 1447.28 577.632 1445.77 586.119 1435.69C594.359 1425.91 608.761 1424.15 619.107 1431.68L640.281 1447.08C652.25 1455.78 654.437 1472.76 645.066 1484.21C636.051 1495.23 637.686 1511.47 648.715 1520.47L764.134 1614.67C777.843 1625.85 777.411 1646.94 763.255 1657.55C753.288 1665.03 739.519 1664.79 729.82 1656.97Z" fill="#B4E7C7"/>
<path d="M1248.63 836.685L1242.26 845.786C1237.18 853.048 1238.23 862.947 1244.73 868.979C1252.57 876.264 1265.03 875 1271.26 866.288L1277.71 857.248C1283.21 849.552 1281.73 838.9 1274.35 832.992C1266.32 826.568 1254.53 828.261 1248.63 836.685Z" fill="#B4E7C7"/>
<path d="M1328.25 1158.8L1316.57 1168.14C1307.88 1175.1 1296.06 1176.68 1285.84 1172.26L1255.51 1159.15C1244.44 1154.36 1241.04 1140.3 1248.71 1130.99C1254.79 1123.61 1265.56 1122.22 1273.31 1127.82L1280.4 1132.94C1287.48 1138.06 1297.35 1136.62 1302.67 1129.69C1307.81 1123.01 1317.22 1121.4 1324.29 1126L1326.71 1127.57C1337.74 1134.74 1338.52 1150.59 1328.25 1158.8Z" fill="#B4E7C7"/>
<path d="M701.343 243.299L700.489 242.511C693.891 236.42 683.572 236.956 677.639 243.697L668.615 253.952C657.222 266.898 659.404 286.832 673.328 297.007L686.224 306.431C691.664 310.406 699.262 309.436 703.528 304.222L704.155 303.455C708.687 297.916 707.296 289.653 701.202 285.903C694.699 281.901 693.64 272.877 699.039 267.478L701.772 264.745C707.745 258.772 707.55 249.029 701.343 243.299Z" fill="#B4E7C7"/>
<path d="M881.725 68.2717L851.382 42.114C847.974 39.1763 850.052 33.5843 854.551 33.5843C860.618 33.5843 854.515 27.0438 857.501 21.7617L864.648 9.11657C869.928 -0.224225 882.607 -2.06212 890.322 5.3952L912.22 26.5636C922.576 36.5748 922.717 53.1312 912.531 63.3165L908.569 67.2788C901.261 74.5869 889.553 75.02 881.725 68.2717Z" fill="#B4E7C7"/>
<path d="M283.529 530.718L281.165 533.5C273.204 542.865 259.12 543.905 249.87 535.811C242.218 529.116 240.142 518.054 244.845 509.04L246.534 505.803C253.094 493.23 269.527 489.818 280.55 498.741C290.347 506.672 291.692 521.114 283.529 530.718Z" fill="#B4E7C7"/>
<path d="M728.49 914.37L715.803 904.22C715.399 903.897 715.628 903.245 716.145 903.245C716.335 903.245 716.511 903.147 716.611 902.986L732.519 877.288C736.845 870.3 746.354 868.757 752.667 874.018C758.424 878.815 759.18 887.379 754.353 893.11L737.17 913.516C734.987 916.108 731.136 916.487 728.49 914.37Z" fill="#B4E7C7"/>
<path d="M457.132 1827.94L469.738 1837.7C495.042 1857.29 491.004 1899.58 466.874 1920.6C425.571 1956.58 358.735 1901.31 378.332 1850.16C390.548 1818.28 430.132 1807.03 457.132 1827.94Z" stroke="#B4E7C7" stroke-width="11.1973"/>
<path d="M729.82 1656.97L505.567 1476.18L-102.04 991.538C-113.091 982.723 -115.697 966.984 -108.077 955.078C-99.2701 941.318 -80.505 938.174 -67.695 948.314L552.34 1439.1C562.672 1447.28 577.632 1445.77 586.119 1435.69C594.359 1425.91 608.761 1424.15 619.107 1431.68L640.281 1447.08C652.25 1455.78 654.437 1472.76 645.066 1484.21C636.051 1495.23 637.686 1511.47 648.715 1520.47L764.134 1614.67C777.843 1625.85 777.411 1646.94 763.255 1657.55C753.288 1665.03 739.519 1664.79 729.82 1656.97Z" stroke="#B4E7C7" stroke-width="11.1973"/>
<path d="M1248.63 836.685L1242.26 845.786C1237.18 853.048 1238.23 862.947 1244.73 868.979C1252.57 876.264 1265.03 875 1271.26 866.288L1277.71 857.248C1283.21 849.552 1281.73 838.9 1274.35 832.992C1266.32 826.568 1254.53 828.261 1248.63 836.685Z" stroke="#B4E7C7" stroke-width="11.1973"/>
<path d="M1328.25 1158.8L1316.57 1168.14C1307.88 1175.1 1296.06 1176.68 1285.84 1172.26L1255.51 1159.15C1244.44 1154.36 1241.04 1140.3 1248.71 1130.99C1254.79 1123.61 1265.56 1122.22 1273.31 1127.82L1280.4 1132.94C1287.48 1138.06 1297.35 1136.62 1302.67 1129.69C1307.81 1123.01 1317.22 1121.4 1324.29 1126L1326.71 1127.57C1337.74 1134.74 1338.52 1150.59 1328.25 1158.8Z" stroke="#B4E7C7" stroke-width="11.1973"/>
<path d="M701.343 243.299L700.489 242.511C693.891 236.42 683.572 236.956 677.639 243.697L668.615 253.952C657.222 266.898 659.404 286.832 673.328 297.007L686.224 306.431C691.664 310.406 699.262 309.436 703.528 304.222L704.155 303.455C708.687 297.916 707.296 289.653 701.202 285.903C694.699 281.901 693.64 272.877 699.039 267.478L701.772 264.745C707.745 258.772 707.55 249.029 701.343 243.299Z" stroke="#B4E7C7" stroke-width="11.1973"/>
<path d="M881.725 68.2717L851.382 42.114C847.974 39.1763 850.052 33.5843 854.551 33.5843C860.618 33.5843 854.515 27.0438 857.501 21.7617L864.648 9.11657C869.928 -0.224225 882.607 -2.06212 890.322 5.3952L912.22 26.5636C922.576 36.5748 922.717 53.1312 912.531 63.3165L908.569 67.2788C901.261 74.5869 889.553 75.02 881.725 68.2717Z" stroke="#B4E7C7" stroke-width="11.1973"/>
<path d="M283.529 530.718L281.165 533.5C273.204 542.865 259.12 543.905 249.87 535.811C242.218 529.116 240.142 518.054 244.845 509.04L246.534 505.803C253.094 493.23 269.527 489.818 280.55 498.741C290.347 506.672 291.692 521.114 283.529 530.718Z" stroke="#B4E7C7" stroke-width="11.1973"/>
<path d="M728.49 914.37L715.803 904.22C715.399 903.897 715.628 903.245 716.145 903.245C716.335 903.245 716.511 903.147 716.611 902.986L732.519 877.288C736.845 870.3 746.354 868.757 752.667 874.018C758.424 878.815 759.18 887.379 754.353 893.11L737.17 913.516C734.987 916.108 731.136 916.487 728.49 914.37Z" stroke="#B4E7C7" stroke-width="11.1973"/>
<path d="M1270.56 445.493L1246.65 474.923C1226.82 499.337 1191.14 503.489 1166.22 484.282L1012.85 366.031C987.329 346.355 982.74 309.648 1002.63 284.295L1026.16 254.305C1045.83 229.235 1082.04 224.729 1107.26 244.213L1261.01 363.024C1286.8 382.95 1291.11 420.202 1270.56 445.493Z" fill="#B4E7C7"/>
<path d="M1438.68 235.136L1933.23 636.375L2405.38 373.237L2330.73 -160.503L1966.82 -446.036L1871.64 -326.597L1757.8 -425.507L1720.48 -384.45L1614.1 -481.494L1285.65 -80.2558L1171.81 -177.299L1106.49 -98.918L1220.33 -3.74054L1464.81 199.678L1438.68 235.136Z" fill="#B4E7C7"/>
<path d="M597 2325.5L635.431 2193.09M945.984 1526.85L799.613 1723.12C787.787 1738.98 778.612 1756.65 772.445 1775.45L635.431 2193.09M597 2851.87L787.152 2237.88M742.566 2872.4L917.991 2325.5M1113.94 1806.78L1072.41 1865.73C1061.6 1881.09 1053.21 1898.01 1047.55 1915.91L917.991 2325.5M1113.94 1806.78L2651.71 -139.689M1113.94 1806.78L2381.11 2838.81M635.431 2193.09L787.152 2237.88M787.152 2237.88L908.549 1837.89C914.795 1817.32 924.62 1798 937.575 1780.83L992.64 1707.87L2528.54 -233M787.152 2237.88L917.991 2325.5M917.991 2325.5L1141.94 2515.95M1270.71 2099.78L2172.09 965.117M1097.15 2719.37L2732.92 1290.84C2742.21 1282.73 2752.3 1275.58 2763.03 1269.49L3166.79 1040.61M3625.88 780.36L3166.79 1040.61M1587.97 474.299L2426.83 1150.81M3265.7 1827.31L2426.83 1150.81M3166.79 1040.61L3336.62 2271.47M2858.86 2838.81L3225.48 2354.01C3239.72 2335.18 3257.47 2319.29 3277.74 2307.21L3625.88 2099.78M2299 -173.281L3077.87 442.165C3114.59 471.186 3138.8 513.187 3145.49 559.516L3474.72 2838.81M2257.94 2838.81L2403.51 2152.04L2469.68 1331.12C2471.58 1307.56 2468.89 1283.85 2461.76 1261.3L2426.83 1150.81M2056.39 2838.81L3106.25 1511.92M3166.79 1435.41L3106.25 1511.92M1858.57 2838.81L2914.41 1505.85C2952.14 1458.22 3020.81 1449.02 3069.75 1485.05M3106.25 1511.92L3069.75 1485.05M3069.75 1485.05L3625.88 1179.73" stroke="white" stroke-width="32"/>
<path d="M147.252 2259.99L251.931 2115.5C270.345 2090.09 284.292 2061.72 293.173 2031.62L445.756 1514.44C453.243 1489.06 457.045 1462.74 457.045 1436.28V1419.07C457.045 1342.42 425.191 1269.21 369.104 1216.97L320.811 1171.98L268.059 1123.39C211.281 1071.1 178.978 997.428 178.978 920.236V864.054M178.978 864.054L1496.2 -815.544C1522.2 -848.699 1540.28 -887.364 1549.03 -928.579L1567.45 -1015.23M178.978 864.054L103.696 900.058C41.6627 929.726 -29.2065 935.188 -95.0532 915.376L-203.599 882.716M1567.45 -1015.23L1423.75 -1349.29M1567.45 -1015.23L1898.13 -746.034C1925.02 -724.145 1947.55 -697.388 1964.54 -667.163L2056.14 -504.181C2073.57 -473.174 2096.82 -445.826 2124.62 -423.638L2462.62 -153.859C2480.38 -139.681 2496.33 -123.364 2510.09 -105.28L2560.08 -39.6143C2576.3 -18.3002 2589.34 5.26065 2598.78 30.3282L2681.03 248.731C2688.84 269.452 2694.12 291.037 2696.77 313.02L2870.07 1750.51" stroke="white" stroke-width="47" stroke-linejoin="round"/>
</g>
</g>
<defs>
<clipPath id="clip0_11_159">
<rect width="1211.11" height="1325" fill="white"/>
</clipPath>
<clipPath id="clip1_11_159">
<rect width="2818" height="3083" fill="white" transform="translate(-198 -879)"/>
</clipPath>
</defs>
</svg>
